<svg width="163" height="41" fill="none" xmlns="http://www.w3.org/2000/svg"><rect y=".5" width="40" height="40" rx="20" fill="#0E1422"/><path d="m24.477 11.848-6.273-3.793a3.748 3.748 0 0 0-1.95-.555c-2.045 0-3.92 1.712-3.92 4.105v14.202l12.143-7.34c2.431-1.472 2.431-5.147 0-6.618Zm-8.629 7.1v-7.58l6.268 3.789-6.268 3.791Z" fill="#fff"/><path d="M27.849 33.484c0 .043-11.858-.018-11.858-.018l-1.048-.123c-1.696-.199-2.999-1.72-2.941-3.508 0-.043.004-.083.006-.125a3.908 3.908 0 0 1 .778-2.122c.187-.242.415-.446.673-.6l9.02-5.415c1.862-1.12 3.414-1.511 4.22-3.539a5.623 5.623 0 0 0 .377-2.396l-.031-.552.92 5.334c.118.906-.064 1.834-.544 2.597a3.547 3.547 0 0 1-1.126 1.13L15.83 29.395a.322.322 0 0 0-.03.02c-.286.215-.11.693.241.673l8.712.053c1.691-.098 3.1 1.571 3.097 3.344Z" fill="#fff"/><path d="M53.4 28V13.6h9.4v2.54h-6.68v3.08h5.48v2.54h-5.48v3.7h6.68V28h-9.4Zm15.857.3c-1.12 0-2.08-.25-2.88-.75a4.95 4.95 0 0 1-1.84-2.04c-.427-.86-.64-1.83-.64-2.91 0-1.093.22-2.07.66-2.93a5.067 5.067 0 0 1 1.88-2.03c.806-.493 1.76-.74 2.86-.74 1.273 0 2.34.323 3.2.97.867.64 1.42 1.517 1.66 2.63l-2.72.72c-.16-.56-.44-.997-.84-1.31a2.093 2.093 0 0 0-1.34-.47c-.574 0-1.044.14-1.41.42-.367.273-.637.65-.81 1.13-.174.473-.26 1.01-.26 1.61 0 .94.207 1.703.62 2.29.42.58 1.04.87 1.86.87.613 0 1.08-.14 1.4-.42.32-.28.56-.68.72-1.2l2.78.58c-.307 1.147-.887 2.03-1.74 2.65-.853.62-1.907.93-3.16.93Zm10.767 0c-1.087 0-2.04-.243-2.86-.73a5.111 5.111 0 0 1-1.92-2.01c-.453-.86-.68-1.847-.68-2.96 0-1.127.233-2.117.7-2.97a5.093 5.093 0 0 1 1.93-2.01c.82-.48 1.763-.72 2.83-.72 1.087 0 2.04.243 2.86.73a5.073 5.073 0 0 1 1.93 2.02c.46.853.69 1.837.69 2.95 0 1.12-.233 2.11-.7 2.97a5.09 5.09 0 0 1-1.93 2.01c-.82.48-1.77.72-2.85.72Zm0-2.54c.873 0 1.523-.293 1.95-.88.433-.593.65-1.353.65-2.28 0-.96-.22-1.727-.66-2.3-.433-.573-1.08-.86-1.94-.86-.593 0-1.08.133-1.46.4-.38.267-.663.637-.85 1.11-.18.473-.27 1.023-.27 1.65 0 .967.217 1.737.65 2.31.44.567 1.083.85 1.93.85ZM100.003 28v-6.38c0-.713-.17-1.267-.51-1.66-.333-.4-.796-.6-1.39-.6-.38 0-.71.09-.99.27-.28.173-.5.42-.66.74-.153.313-.23.677-.23 1.09l-1.14-.76c0-.74.174-1.393.52-1.96a3.676 3.676 0 0 1 1.41-1.32c.593-.32 1.25-.48 1.97-.48 1.233 0 2.163.367 2.79 1.1.633.727.95 1.68.95 2.86V28h-2.72Zm-13.02 0V17.2h2.4v3.58h.34V28h-2.74Zm6.52 0v-6.38c0-.713-.17-1.267-.51-1.66-.333-.4-.796-.6-1.39-.6-.566 0-1.023.197-1.37.59-.34.387-.51.89-.51 1.51l-1.14-.8c0-.707.177-1.34.53-1.9a3.837 3.837 0 0 1 1.42-1.33c.6-.327 1.27-.49 2.01-.49.847 0 1.54.18 2.08.54.547.36.95.84 1.21 1.44s.39 1.26.39 1.98V28h-2.72Zm24.12 0v-6.38c0-.713-.17-1.267-.51-1.66-.333-.4-.796-.6-1.39-.6-.38 0-.71.09-.99.27-.28.173-.5.42-.66.74-.153.313-.23.677-.23 1.09l-1.14-.76c0-.74.174-1.393.52-1.96a3.684 3.684 0 0 1 1.41-1.32c.594-.32 1.25-.48 1.97-.48 1.234 0 2.164.367 2.79 1.1.634.727.95 1.68.95 2.86V28h-2.72Zm-13.02 0V17.2h2.4v3.58h.34V28h-2.74Zm6.52 0v-6.38c0-.713-.17-1.267-.51-1.66-.333-.4-.796-.6-1.39-.6-.566 0-1.023.197-1.37.59-.34.387-.51.89-.51 1.51l-1.14-.8c0-.707.177-1.34.53-1.9a3.844 3.844 0 0 1 1.42-1.33c.6-.327 1.27-.49 2.01-.49.847 0 1.54.18 2.08.54.547.36.95.84 1.21 1.44s.39 1.26.39 1.98V28h-2.72Zm15.945.3c-1.106 0-2.083-.237-2.93-.71a5.25 5.25 0 0 1-1.98-1.97c-.473-.84-.71-1.8-.71-2.88 0-1.18.234-2.207.7-3.08a5.062 5.062 0 0 1 1.93-2.03c.82-.487 1.764-.73 2.83-.73 1.134 0 2.097.267 2.89.8.794.533 1.38 1.283 1.76 2.25.38.967.514 2.103.4 3.41h-2.69v-1c0-1.1-.176-1.89-.53-2.37-.346-.487-.916-.73-1.71-.73-.926 0-1.61.283-2.05.85-.433.56-.65 1.39-.65 2.49 0 1.007.217 1.787.65 2.34.44.547 1.084.82 1.93.82.534 0 .99-.117 1.37-.35.38-.233.67-.57.87-1.01l2.72.78c-.406.987-1.05 1.753-1.93 2.3-.873.547-1.83.82-2.87.82Zm-3.58-4.94v-2.02h7.16v2.02h-7.16ZM133.516 28V17.2h2.4v2.64l-.26-.34c.14-.373.327-.713.56-1.02.234-.307.52-.56.86-.76.26-.16.544-.283.85-.37.307-.093.624-.15.95-.17.327-.027.654-.02.98.02v2.54c-.3-.093-.65-.123-1.05-.09-.393.027-.75.117-1.07.27a2.422 2.422 0 0 0-1.31 1.45c-.113.327-.17.697-.17 1.11V28h-2.74Zm12.107.3c-1.12 0-2.08-.25-2.88-.75-.8-.5-1.413-1.18-1.84-2.04-.426-.86-.64-1.83-.64-2.91 0-1.093.22-2.07.66-2.93a5.074 5.074 0 0 1 1.88-2.03c.807-.493 1.76-.74 2.86-.74 1.274 0 2.34.323 3.2.97.867.64 1.42 1.517 1.66 2.63l-2.72.72c-.16-.56-.44-.997-.84-1.31a2.092 2.092 0 0 0-1.34-.47c-.573 0-1.043.14-1.41.42-.366.273-.636.65-.81 1.13a4.669 4.669 0 0 0-.26 1.61c0 .94.207 1.703.62 2.29.42.58 1.04.87 1.86.87.614 0 1.08-.14 1.4-.42.32-.28.56-.68.72-1.2l2.78.58c-.306 1.147-.886 2.03-1.74 2.65-.853.62-1.906.93-3.16.93Zm10.927 0c-1.106 0-2.083-.237-2.93-.71a5.25 5.25 0 0 1-1.98-1.97c-.473-.84-.71-1.8-.71-2.88 0-1.18.234-2.207.7-3.08a5.062 5.062 0 0 1 1.93-2.03c.82-.487 1.764-.73 2.83-.73 1.134 0 2.097.267 2.89.8.794.533 1.38 1.283 1.76 2.25.38.967.514 2.103.4 3.41h-2.69v-1c0-1.1-.176-1.89-.53-2.37-.346-.487-.916-.73-1.71-.73-.926 0-1.61.283-2.05.85-.433.56-.65 1.39-.65 2.49 0 1.007.217 1.787.65 2.34.44.547 1.084.82 1.93.82.534 0 .99-.117 1.37-.35.38-.233.67-.57.87-1.01l2.72.78c-.406.987-1.05 1.753-1.93 2.3-.873.547-1.83.82-2.87.82Zm-3.58-4.94v-2.02h7.16v2.02h-7.16Z" fill="#0E1422"/></svg>