<svg width="48" height="48" fill="none" xmlns="http://www.w3.org/2000/svg"><rect width="48" height="48" rx="24" fill="#F6F6F6"/><path d="M27.7 28.73V17.1c0-.947-.767-1.715-1.714-1.715H14.918c-.946 0-1.714.768-1.714 1.715v11.358c0 .947.768 1.714 1.714 1.714h1.286m18.592-6.674h-7.093m4.786 6.354h.59c.948 0 1.715-.767 1.715-1.714v-5.145l-2.387-4.887a1.714 1.714 0 0 0-1.54-.962H28.01m-1.306 13.028h-5.036m-5.379.052a2.393 2.393 0 1 0 4.787 0 2.393 2.393 0 0 0-4.787 0Zm10.864 0a2.393 2.393 0 1 0 4.786 0 2.393 2.393 0 0 0-4.786 0Z" stroke="#0E1422" stroke-width="1.714" stroke-linecap="round" stroke-linejoin="round"/></svg>