<svg width="48" height="48" fill="none" xmlns="http://www.w3.org/2000/svg"><rect width="48" height="48" rx="24" fill="#F6F6F6"/><path d="M18.052 25.27 15 30.576l3.297-.887.884 3.311 2.648-4.605m8.12-3.125L33 30.576l-3.297-.887L28.819 33l-2.648-4.605m4.688-6.505c0 3.805-3.073 6.89-6.863 6.89-3.79 0-6.862-3.085-6.862-6.89 0-3.805 3.072-6.89 6.862-6.89s6.863 3.085 6.863 6.89Zm-6.582-3.74.945 1.908a.298.298 0 0 0 .242.177l2.1.32a.317.317 0 0 1 .262.22.322.322 0 0 1-.087.332l-1.55 1.478a.31.31 0 0 0 0 .287l.297 2.097a.322.322 0 0 1-.296.386.318.318 0 0 1-.176-.044l-1.869-.993a.373.373 0 0 0-.308 0l-1.868.993a.318.318 0 0 1-.473-.342l.352-2.097a.31.31 0 0 0-.055-.287l-1.55-1.49a.32.32 0 0 1 .176-.54l2.1-.31a.296.296 0 0 0 .241-.176l.945-1.909a.319.319 0 0 1 .572-.01Z" stroke="#0E1422" stroke-width="1.43" stroke-linecap="round" stroke-linejoin="round"/></svg>